#Comment line ignore any data following # character 
#Hierarchical Translation and Rotation (.htr) file 
[Header]	
#Header keywords are followed by a single value 
FileType HTR		#Single word string
DataType HTRS		#Translation followed by rotation and scale data
FileVersion 1		#integer
NumSegments 84		#integer
NumFrames 2		#integer
DataFrameRate 30		#integer, data frame rate in this file
EulerRotationOrder ZYX
CalibrationUnits mm
RotationUnits Degrees
GlobalAxisofGravity Y
BoneLengthAxis Y
ScaleFactor 1.00
[SegmentNames&Hierarchy]
#CHILD	PARENT
MASTER GLOBAL
root MASTER
chest root
L_mid_tent01 root
R_mid_tent01 root
spine01 root
Bip01_Neck chest
L_humerus chest
R_humerus chest
weapon_bone chest
Bip01_Head Bip01_Neck
eye_left_bone Bip01_Head
eye_right_bone Bip01_Head
L_forearm L_humerus
L_front_hand L_forearm
L_weapon_bone L_forearm
L_front_hand01_01 L_front_hand
L_front_hand02_01 L_front_hand
L_front_hand03_01 L_front_hand
L_front_hand01_02 L_front_hand01_01
L_front_hand02_02 L_front_hand02_01
L_front_hand03_02 L_front_hand03_01
R_forearm R_humerus
R_front_hand R_forearm
R_weapon_bone R_forearm
R_front_hand01_01 R_front_hand
R_front_hand02_01 R_front_hand
R_front_hand03_01 R_front_hand
R_front_hand01_02 R_front_hand01_01
R_front_hand02_02 R_front_hand02_01
R_front_hand03_02 R_front_hand03_01
null_rope01_connect L_mid_tent01
Rope1_Seg01 null_rope01_connect
Rope1_Seg02 Rope1_Seg01
Rope1_Seg03 Rope1_Seg02
Rope1_Seg04 Rope1_Seg03
Rope1_Seg05 Rope1_Seg04
Rope1_Seg06 Rope1_Seg05
Rope1_Seg07 Rope1_Seg06
Rope1_Seg09 Rope1_Seg07
L_mid_hand01 Rope1_Seg09
L_mid_hand02 Rope1_Seg09
L_mid_hand03 Rope1_Seg09
null_rope02_connect R_mid_tent01
Rope2_Seg01 null_rope02_connect
Rope2_Seg02 Rope2_Seg01
Rope2_Seg03 Rope2_Seg02
Rope2_Seg04 Rope2_Seg03
Rope2_Seg05 Rope2_Seg04
Rope2_Seg06 Rope2_Seg05
Rope2_Seg07 Rope2_Seg06
Rope2_Seg09 Rope2_Seg07
R_mid_hand01 Rope2_Seg09
R_mid_hand02 Rope2_Seg09
R_mid_hand03 Rope2_Seg09
spine02 spine01
spine03 spine02
pelvis spine03
null_rope03_connect pelvis
null_rope04_connect pelvis
Rope3_Seg01 null_rope03_connect
Rope3_Seg02 Rope3_Seg01
Rope3_Seg03 Rope3_Seg02
Rope3_Seg04 Rope3_Seg03
Rope3_Seg05 Rope3_Seg04
Rope3_Seg06 Rope3_Seg05
Rope3_Seg07 Rope3_Seg06
Rope3_Seg08 Rope3_Seg07
Rope3_Seg09 Rope3_Seg08
R_rear_hand01 Rope3_Seg09
R_rear_hand02 Rope3_Seg09
R_rear_hand03 Rope3_Seg09
Rope4_Seg01 null_rope04_connect
Rope4_Seg02 Rope4_Seg01
Rope4_Seg03 Rope4_Seg02
Rope4_Seg04 Rope4_Seg03
Rope4_Seg05 Rope4_Seg04
Rope4_Seg06 Rope4_Seg05
Rope4_Seg07 Rope4_Seg06
Rope4_Seg08 Rope4_Seg07
Rope4_Seg09 Rope4_Seg08
L_rear_hand01 Rope4_Seg09
L_rear_hand02 Rope4_Seg09
L_rear_hand03 Rope4_Seg09
[BasePosition]
#SegmentName Tx, Ty, Tz, Rx, Ry, Rz, BoneLength
MASTER 0.000000 0.000000 0.000000 -90.000000 0.000000 0.000000 10.000000 
root 0.000000 0.000000 0.000000 0.000000 0.000000 0.000000 10.000000 
chest 0.000000 0.000000 0.000000 0.000000 0.000000 0.000000 10.000000 
L_mid_tent01 0.000000 0.000000 0.000000 0.000000 0.000000 0.000000 10.000000 
R_mid_tent01 0.000000 0.000000 0.000000 0.000000 0.000000 0.000000 10.000000 
spine01 0.000000 0.000000 0.000000 0.000000 0.000000 0.000000 10.000000 
Bip01_Neck 0.000000 0.000000 0.000000 0.000000 0.000000 0.000000 10.000000 
L_humerus 0.000000 0.000000 0.000000 0.000000 0.000000 0.000000 10.000000 
R_humerus 0.000000 0.000000 0.000000 0.000000 0.000000 0.000000 10.000000 
weapon_bone 0.000000 0.000000 0.000000 0.000000 0.000000 0.000000 10.000000 
Bip01_Head 0.000000 0.000000 0.000000 0.000000 0.000000 0.000000 10.000000 
eye_left_bone 0.000000 0.000000 0.000000 0.000000 0.000000 0.000000 10.000000 
eye_right_bone 0.000000 0.000000 0.000000 0.000000 0.000000 0.000000 10.000000 
L_forearm 0.000000 0.000000 0.000000 0.000000 0.000000 0.000000 10.000000 
L_front_hand 0.000000 0.000000 0.000000 0.000000 0.000000 0.000000 10.000000 
L_weapon_bone 0.000000 0.000000 0.000000 0.000000 0.000000 0.000000 10.000000 
L_front_hand01_01 0.000000 0.000000 0.000000 0.000000 0.000000 0.000000 10.000000 
L_front_hand02_01 0.000000 0.000000 0.000000 0.000000 0.000000 0.000000 10.000000 
L_front_hand03_01 0.000000 0.000000 0.000000 0.000000 0.000000 0.000000 10.000000 
L_front_hand01_02 0.000000 0.000000 0.000000 0.000000 0.000000 0.000000 10.000000 
L_front_hand02_02 0.000000 0.000000 0.000000 0.000000 0.000000 0.000000 10.000000 
L_front_hand03_02 0.000000 0.000000 0.000000 0.000000 0.000000 0.000000 10.000000 
R_forearm 0.000000 0.000000 0.000000 0.000000 0.000000 0.000000 10.000000 
R_front_hand 0.000000 0.000000 0.000000 0.000000 0.000000 0.000000 10.000000 
R_weapon_bone 0.000000 0.000000 0.000000 0.000000 0.000000 0.000000 10.000000 
R_front_hand01_01 0.000000 0.000000 0.000000 0.000000 0.000000 0.000000 10.000000 
R_front_hand02_01 0.000000 0.000000 0.000000 0.000000 0.000000 0.000000 10.000000 
R_front_hand03_01 0.000000 0.000000 0.000000 0.000000 0.000000 0.000000 10.000000 
R_front_hand01_02 0.000000 0.000000 0.000000 0.000000 0.000000 0.000000 10.000000 
R_front_hand02_02 0.000000 0.000000 0.000000 0.000000 0.000000 0.000000 10.000000 
R_front_hand03_02 0.000000 0.000000 0.000000 0.000000 0.000000 0.000000 10.000000 
null_rope01_connect 0.000000 0.000000 0.000000 0.000000 0.000000 0.000000 10.000000 
Rope1_Seg01 0.000000 0.000000 0.000000 0.000000 0.000000 0.000000 10.000000 
Rope1_Seg02 0.000000 0.000000 0.000000 0.000000 0.000000 0.000000 10.000000 
Rope1_Seg03 0.000000 0.000000 0.000000 0.000000 0.000000 0.000000 10.000000 
Rope1_Seg04 0.000000 0.000000 0.000000 0.000000 0.000000 0.000000 10.000000 
Rope1_Seg05 0.000000 0.000000 0.000000 0.000000 0.000000 0.000000 10.000000 
Rope1_Seg06 0.000000 0.000000 0.000000 0.000000 0.000000 0.000000 10.000000 
Rope1_Seg07 0.000000 0.000000 0.000000 0.000000 0.000000 0.000000 10.000000 
Rope1_Seg09 0.000000 0.000000 0.000000 0.000000 0.000000 0.000000 10.000000 
L_mid_hand01 0.000000 0.000000 0.000000 0.000000 0.000000 0.000000 10.000000 
L_mid_hand02 0.000000 0.000000 0.000000 0.000000 0.000000 0.000000 10.000000 
L_mid_hand03 0.000000 0.000000 0.000000 0.000000 0.000000 0.000000 10.000000 
null_rope02_connect 0.000000 0.000000 0.000000 0.000000 0.000000 0.000000 10.000000 
Rope2_Seg01 0.000000 0.000000 0.000000 0.000000 0.000000 0.000000 10.000000 
Rope2_Seg02 0.000000 0.000000 0.000000 0.000000 0.000000 0.000000 10.000000 
Rope2_Seg03 0.000000 0.000000 0.000000 0.000000 0.000000 0.000000 10.000000 
Rope2_Seg04 0.000000 0.000000 0.000000 0.000000 0.000000 0.000000 10.000000 
Rope2_Seg05 0.000000 0.000000 0.000000 0.000000 0.000000 0.000000 10.000000 
Rope2_Seg06 0.000000 0.000000 0.000000 0.000000 0.000000 0.000000 10.000000 
Rope2_Seg07 0.000000 0.000000 0.000000 0.000000 0.000000 0.000000 10.000000 
Rope2_Seg09 0.000000 0.000000 0.000000 0.000000 0.000000 0.000000 10.000000 
R_mid_hand01 0.000000 0.000000 0.000000 0.000000 0.000000 0.000000 10.000000 
R_mid_hand02 0.000000 0.000000 0.000000 0.000000 0.000000 0.000000 10.000000 
R_mid_hand03 0.000000 0.000000 0.000000 0.000000 0.000000 0.000000 10.000000 
spine02 0.000000 0.000000 0.000000 0.000000 0.000000 0.000000 10.000000 
spine03 0.000000 0.000000 0.000000 0.000000 0.000000 0.000000 10.000000 
pelvis 0.000000 0.000000 0.000000 0.000000 0.000000 0.000000 10.000000 
null_rope03_connect 0.000000 0.000000 0.000000 0.000000 0.000000 0.000000 10.000000 
null_rope04_connect 0.000000 0.000000 0.000000 0.000000 0.000000 0.000000 10.000000 
Rope3_Seg01 0.000000 0.000000 0.000000 0.000000 0.000000 0.000000 10.000000 
Rope3_Seg02 0.000000 0.000000 0.000000 0.000000 0.000000 0.000000 10.000000 
Rope3_Seg03 0.000000 0.000000 0.000000 0.000000 0.000000 0.000000 10.000000 
Rope3_Seg04 0.000000 0.000000 0.000000 0.000000 0.000000 0.000000 10.000000 
Rope3_Seg05 0.000000 0.000000 0.000000 0.000000 0.000000 0.000000 10.000000 
Rope3_Seg06 0.000000 0.000000 0.000000 0.000000 0.000000 0.000000 10.000000 
Rope3_Seg07 0.000000 0.000000 0.000000 0.000000 0.000000 0.000000 10.000000 
Rope3_Seg08 0.000000 0.000000 0.000000 0.000000 0.000000 0.000000 10.000000 
Rope3_Seg09 0.000000 0.000000 0.000000 0.000000 0.000000 0.000000 10.000000 
R_rear_hand01 0.000000 0.000000 0.000000 0.000000 0.000000 0.000000 10.000000 
R_rear_hand02 0.000000 0.000000 0.000000 0.000000 0.000000 0.000000 10.000000 
R_rear_hand03 0.000000 0.000000 0.000000 0.000000 0.000000 0.000000 10.000000 
Rope4_Seg01 0.000000 0.000000 0.000000 0.000000 0.000000 0.000000 10.000000 
Rope4_Seg02 0.000000 0.000000 0.000000 0.000000 0.000000 0.000000 10.000000 
Rope4_Seg03 0.000000 0.000000 0.000000 0.000000 0.000000 0.000000 10.000000 
Rope4_Seg04 0.000000 0.000000 0.000000 0.000000 0.000000 0.000000 10.000000 
Rope4_Seg05 0.000000 0.000000 0.000000 0.000000 0.000000 0.000000 10.000000 
Rope4_Seg06 0.000000 0.000000 0.000000 0.000000 0.000000 0.000000 10.000000 
Rope4_Seg07 0.000000 0.000000 0.000000 0.000000 0.000000 0.000000 10.000000 
Rope4_Seg08 0.000000 0.000000 0.000000 0.000000 0.000000 0.000000 10.000000 
Rope4_Seg09 0.000000 0.000000 0.000000 0.000000 0.000000 0.000000 10.000000 
L_rear_hand01 0.000000 0.000000 0.000000 0.000000 0.000000 0.000000 10.000000 
L_rear_hand02 0.000000 0.000000 0.000000 0.000000 0.000000 0.000000 10.000000 
L_rear_hand03 0.000000 0.000000 0.000000 0.000000 0.000000 0.000000 10.000000 
#Beginning of Data. Separated by tabs
#Fr	Tx	Ty	Tz	Rx	Ry	Rz	SF
[MASTER]
10 0.000000 0.000000 0.000000 0.001660 0.001660 0.001660 0.000000
11 0.000000 0.000000 0.000000 0.001660 0.001660 0.001660 0.000000
[root]
10 -21.151609 -49.123840 733.838196 -89.166138 -43.354504 -90.251160 735.784668
11 -22.794807 -33.925854 812.440369 -89.407440 -41.755535 -89.979477 813.467834
[chest]
10 -84.512650 -34.090519 0.000000 2.029145 -1.973153 -128.135666 91.129311
11 -84.512650 -34.090519 0.000000 1.937299 -1.920128 -129.790161 91.129311
[L_mid_tent01]
10 27.360935 22.142359 -250.310455 -14.871276 -10.195291 61.440468 252.773071
11 27.358566 22.143724 -250.295074 -13.776637 -9.482290 55.690147 252.757721
[R_mid_tent01]
10 23.228794 24.509907 226.238495 -171.182846 4.103342 62.002766 228.744751
11 23.228794 24.509907 226.238495 -171.357422 2.815177 57.372559 228.744751
[spine01]
10 -0.361383 -0.195265 0.000000 0.001941 0.001320 21.533087 0.410763
11 -0.361383 -0.195265 0.000000 0.001939 0.001323 21.369520 0.410763
[Bip01_Neck]
10 165.484543 71.581718 0.000119 175.896118 1.177290 24.871185 180.302734
11 165.484543 71.581718 0.000119 175.896118 1.177290 24.871183 180.302734
[L_humerus]
10 -13.983130 -135.272980 -120.471481 -86.574043 -0.787207 -116.591164 181.680161
11 -13.983130 -135.272980 -120.471481 -85.238503 -2.570008 -95.970833 181.680161
[R_humerus]
10 -13.983309 -135.273102 125.287651 96.627319 -2.840588 -110.438019 184.909012
11 -13.983309 -135.273102 125.287651 93.910751 -2.666350 -90.741890 184.909012
[weapon_bone]
10 235.964890 -300.705902 0.000000 0.000000 -89.951546 -128.212341 382.234833
11 235.964890 -300.705902 0.000000 0.000000 -89.951546 -128.212341 382.234833
[Bip01_Head]
10 102.819809 23.735506 5.410337 3.150732 3.423701 -20.839092 105.662476
11 102.819809 23.735516 5.410331 3.150731 3.423701 -20.839088 105.662476
[eye_left_bone]
10 -24.626970 125.451866 -64.772606 0.000000 -90.000000 -99.840431 143.318359
11 -24.626970 125.451866 -64.772606 0.000000 -90.000000 -99.840431 143.318359
[eye_right_bone]
10 -24.626970 125.451866 64.327362 0.000000 -89.960434 80.159386 143.117676
11 -24.626970 125.451866 64.327362 0.000000 -89.972023 80.159386 143.117676
[L_forearm]
10 322.776093 0.000000 -0.000119 0.000017 0.002347 -89.149834 322.776093
11 322.776093 0.000000 -0.000119 0.000017 0.002347 -89.149834 322.776093
[L_front_hand]
10 241.149185 -0.042021 -3.300071 -177.732727 0.063458 -83.063286 241.171753
11 241.149185 -0.042021 -3.300071 -177.736008 0.141676 -85.066399 241.171753
[L_weapon_bone]
10 155.462662 5.196300 0.000734 0.002116 0.001017 38.659290 155.549484
11 155.326233 6.179112 0.000782 0.002110 0.001028 38.046642 155.449097
[L_front_hand01_01]
10 86.095154 20.947098 -0.655860 0.405585 -0.442306 -4.620490 88.609184
11 86.095154 20.947098 -0.655860 0.405585 -0.442306 -4.620490 88.609184
[L_front_hand02_01]
10 86.935165 -11.437475 24.513514 116.959450 3.630818 1.495453 91.046425
11 86.935165 -11.437475 24.513514 116.959450 3.630818 1.495453 91.046425
[L_front_hand03_01]
10 86.637497 -14.123976 -20.424902 -118.420097 -4.656303 -0.152527 90.126129
11 86.637497 -14.123976 -20.424902 -118.420097 -4.656303 -0.152527 90.126129
[L_front_hand01_02]
10 71.020905 -0.000179 0.000030 0.000004 -0.000005 -8.379269 71.020905
11 71.020905 -0.000179 0.000030 0.000004 -0.000005 -8.379269 71.020905
[L_front_hand02_02]
10 71.020927 -0.000119 0.000060 -0.000005 -0.000004 -8.379259 71.020927
11 71.020927 -0.000119 0.000060 -0.000005 -0.000004 -8.379259 71.020927
[L_front_hand03_02]
10 71.020905 -0.000060 0.000060 0.000015 -0.000040 -8.379267 71.020905
11 71.020905 -0.000060 0.000060 0.000015 -0.000040 -8.379267 71.020905
[R_forearm]
10 322.776428 -0.000060 0.000030 0.213260 0.005454 -92.312706 322.776428
11 322.776428 -0.000060 0.000030 0.213259 0.005480 -92.326408 322.776428
[R_front_hand]
10 238.847015 -0.006795 2.210259 -1.700735 -0.303794 -88.795715 238.857239
11 238.847015 -0.006795 2.210259 -1.701064 -0.303389 -88.790054 238.857239
[R_weapon_bone]
10 155.664093 0.002503 -0.000030 0.003351 0.001523 -102.499916 155.664078
11 155.664093 0.002503 -0.000030 0.003327 0.001574 -104.252182 155.664078
[R_front_hand01_01]
10 87.624611 14.231146 22.918642 -116.960213 3.496675 -1.324139 91.683487
11 87.624611 14.231146 22.918642 -116.960205 3.496675 -1.324138 91.683487
[R_front_hand02_01]
10 89.356956 14.367283 -19.491137 118.419647 -4.257089 0.609827 92.579636
11 89.356956 14.367283 -19.491137 118.419647 -4.257089 0.609827 92.579636
[R_front_hand03_01]
10 87.286232 -22.307278 -0.143439 -0.387970 -0.231462 4.232001 90.091743
11 87.286232 -22.307278 -0.143439 -0.387970 -0.231462 4.232001 90.091743
[R_front_hand01_02]
10 71.020905 0.000060 0.000119 -0.000005 -0.000020 8.379271 71.020905
11 71.020905 0.000060 0.000119 -0.000005 -0.000020 8.379271 71.020905
[R_front_hand02_02]
10 71.020844 -0.000030 -0.000119 0.000000 -0.000021 8.379271 71.020836
11 71.020844 -0.000030 -0.000119 0.000000 -0.000021 8.379271 71.020836
[R_front_hand03_02]
10 71.020905 0.000000 0.000030 -0.000001 -0.000020 8.379275 71.020905
11 71.020905 0.000000 0.000030 -0.000001 -0.000020 8.379275 71.020905
[null_rope01_connect]
10 328.732483 0.000000 -0.000238 126.142342 -72.144135 -52.784878 328.732483
11 328.732483 0.000000 -0.000238 130.145782 -73.306480 -52.846233 328.732483
[Rope1_Seg01]
10 0.000057 -0.000066 0.000039 95.729607 -36.682873 -172.624298 0.000096
11 0.000054 -0.000065 0.000044 95.317520 -35.372063 -171.744339 0.000096
[Rope1_Seg02]
10 139.999863 -0.000179 0.000000 0.817761 -5.296299 -0.838253 139.999863
11 139.999863 -0.000179 0.000000 0.976340 -5.014776 -1.229264 139.999863
[Rope1_Seg03]
10 139.999924 0.000060 -0.000060 1.121209 -13.052181 -1.908868 139.999924
11 139.999924 0.000060 -0.000060 1.666045 -12.112247 -2.791642 139.999924
[Rope1_Seg04]
10 139.999924 -0.000060 -0.000119 12.406797 -63.051575 -41.673775 139.999924
11 139.999924 -0.000060 -0.000119 18.303698 -58.607803 -44.457157 139.999924
[Rope1_Seg05]
10 139.999832 0.000119 -0.000060 -15.312149 -30.088062 3.499696 139.999832
11 139.999832 0.000119 -0.000060 -13.237744 -33.871117 -1.659063 139.999832
[Rope1_Seg06]
10 139.999954 0.000119 -0.000060 98.854507 -14.074425 64.537659 139.999954
11 139.999954 0.000119 -0.000060 83.077538 -14.750574 63.428970 139.999954
[Rope1_Seg07]
10 139.999985 0.000060 0.000000 18.504309 15.502461 2.380396 139.999985
11 139.999985 0.000060 0.000000 29.343412 16.242058 7.331175 139.999985
[Rope1_Seg09]
10 121.602913 0.000119 -0.000089 -89.793175 -1.359789 0.847147 121.602913
11 121.602913 0.000119 -0.000089 -89.793175 -1.359789 0.847147 121.602913
[L_mid_hand01]
10 103.859421 1.038730 8.195221 104.352028 0.341479 -0.444583 104.187431
11 103.859421 1.038730 8.195221 104.352036 0.341479 -0.444583 104.187431
[L_mid_hand02]
10 105.572853 -4.139662 -10.864139 -135.608444 3.905687 -3.381056 106.211075
11 105.572853 -4.139662 -10.864139 -135.608444 3.905687 -3.381056 106.211075
[L_mid_hand03]
10 104.641464 17.579376 -3.913581 -18.761515 -0.324361 2.942912 106.179977
11 104.641464 17.579376 -3.913581 -18.761518 -0.324361 2.942912 106.179977
[null_rope02_connect]
10 328.732849 0.000179 -0.000119 140.317703 80.042648 -111.295944 328.732849
11 328.732849 0.000179 -0.000119 150.108032 80.757965 -104.440094 328.732849
[Rope2_Seg01]
10 0.000143 0.000114 -0.000039 -17.951694 -37.988419 -1.134080 0.000187
11 0.000142 0.000114 -0.000044 -16.191986 -36.890953 -3.548373 0.000187
[Rope2_Seg02]
10 139.999741 -0.000060 -0.000119 -1.686101 0.597134 4.802076 139.999756
11 139.999741 -0.000060 -0.000119 -1.819009 0.909314 4.474827 139.999756
[Rope2_Seg03]
10 140.000107 0.000030 0.000000 -3.279028 1.056473 11.280920 140.000107
11 140.000107 0.000030 0.000000 -3.617387 1.733311 10.283996 140.000107
[Rope2_Seg04]
10 139.999802 0.000000 -0.000060 0.982789 13.196344 68.872772 139.999802
11 139.999802 0.000000 -0.000060 -3.024332 16.834917 65.989731 139.999802
[Rope2_Seg05]
10 139.999985 -0.000060 0.000119 -3.208003 -28.260916 18.181776 139.999985
11 139.999985 -0.000060 0.000119 -0.743148 -19.740314 31.255199 139.999985
[Rope2_Seg06]
10 139.999893 -0.000030 -0.000119 -36.236397 -44.519485 -42.164867 139.999893
11 139.999893 -0.000030 -0.000119 -30.546125 -52.076012 -43.845860 139.999893
[Rope2_Seg07]
10 139.999893 0.000060 -0.000060 -8.215222 -2.171107 -9.788399 139.999893
11 139.999893 0.000060 -0.000060 -10.680984 -4.181235 -11.333313 139.999893
[Rope2_Seg09]
10 121.338966 0.000089 -0.000060 33.793236 -1.359788 -0.847141 121.338966
11 121.338966 0.000089 -0.000060 33.793236 -1.359788 -0.847141 121.338966
[R_mid_hand01]
10 104.680779 11.144459 -10.335981 -47.384243 2.963521 5.452602 105.778534
11 104.680779 11.144459 -10.335981 -47.384266 2.963523 5.452605 105.778534
[R_mid_hand02]
10 104.070427 2.443552 8.231699 75.626305 -2.250001 1.111093 104.424065
11 104.070427 2.443552 8.231699 75.626297 -2.250001 1.111093 104.424065
[R_mid_hand03]
10 106.028137 -11.221827 -5.996406 -164.381927 2.495983 -6.140520 106.788818
11 106.028137 -11.221827 -5.996406 -164.381927 2.495984 -6.140522 106.788818
[spine02]
10 129.756927 0.001550 0.000119 -1.745654 -3.761497 17.261658 129.756927
11 129.756927 0.001550 0.000119 -1.657970 -3.782342 15.958716 129.756927
[spine03]
10 79.054405 0.010605 -0.598590 1.956767 5.259482 12.793431 79.056671
11 79.040390 0.013060 -0.735495 0.349440 5.118481 -5.187786 79.043816
[pelvis]
10 169.435242 0.051022 0.000000 -6.421673 -2.726064 12.351728 169.435257
11 169.435242 0.051022 0.000000 -6.236061 -2.681289 11.965040 169.435257
[null_rope03_connect]
10 -1.257226 -2.466202 137.391083 148.633682 -83.778748 -78.943291 137.418976
11 -1.257226 -2.466202 137.391083 162.764175 -83.273109 -74.917664 137.418976
[null_rope04_connect]
10 -1.259640 -2.480268 -137.844437 148.633682 -83.778748 -78.943291 137.872513
11 -1.259640 -2.480268 -137.844437 162.764175 -83.273109 -74.917664 137.872513
[Rope3_Seg01]
10 -0.000045 0.000075 -0.000007 -129.716446 -48.134769 -86.242638 0.000088
11 -0.000045 0.000071 -0.000007 -129.244354 -40.872169 -85.958961 0.000084
[Rope3_Seg02]
10 139.999924 -0.000119 0.000060 -3.221532 11.469211 -11.173273 139.999924
11 139.999924 -0.000119 0.000060 -3.859334 13.848576 -14.273581 139.999924
[Rope3_Seg03]
10 139.999924 -0.000119 0.000119 -8.535492 20.985294 -18.819345 139.999924
11 139.999924 -0.000119 0.000119 -10.355593 23.921572 -22.492912 139.999924
[Rope3_Seg04]
10 139.999924 0.000119 0.000000 -6.058310 19.280361 -11.678043 139.999924
11 139.999924 0.000119 0.000000 -6.065706 18.074692 -12.320786 139.999924
[Rope3_Seg05]
10 139.999924 -0.000238 0.000060 -9.660438 22.934519 -20.643925 139.999924
11 139.999924 -0.000238 0.000060 -10.906423 23.393990 -21.877590 139.999924
[Rope3_Seg06]
10 139.999893 -0.000119 -0.000060 -10.282583 23.632570 -20.164595 139.999893
11 139.999893 -0.000119 -0.000060 -10.926618 24.447451 -19.790672 139.999893
[Rope3_Seg07]
10 139.999771 0.000060 -0.000119 -2.199019 9.408794 -5.606236 139.999771
11 139.999771 0.000060 -0.000119 -2.044974 9.126840 -4.981294 139.999771
[Rope3_Seg08]
10 139.999985 -0.000060 0.000000 -0.462813 4.217956 -2.262407 139.999985
11 139.999985 -0.000060 0.000000 -0.449659 4.278004 -2.143405 139.999985
[Rope3_Seg09]
10 90.185997 -0.000179 -0.000060 89.793228 -1.359877 -0.847183 90.185997
11 90.185997 -0.000179 -0.000060 89.793228 -1.359877 -0.847183 90.185997
[R_rear_hand01]
10 103.366196 -6.073594 -10.757982 -156.049316 6.070418 -2.795868 104.101845
11 103.366196 -6.073594 -10.757982 -156.049316 6.070419 -2.795869 104.101845
[R_rear_hand02]
10 100.509819 12.039542 -7.992327 -38.708435 1.958051 5.461186 101.543350
11 100.509819 12.039542 -7.992327 -38.708439 1.958052 5.461187 101.543350
[R_rear_hand03]
10 101.539970 5.215704 5.435467 84.307625 -2.361032 4.099037 101.819031
11 101.539970 5.215704 5.435467 84.307625 -2.361032 4.099037 101.819031
[Rope4_Seg01]
10 -0.000007 0.000027 -0.000096 33.139294 -35.482876 -74.699677 0.000100
11 -0.000008 0.000022 -0.000098 36.288258 -23.488575 -75.508621 0.000101
[Rope4_Seg02]
10 139.999985 0.000060 0.000119 -10.896562 -35.308514 31.722815 139.999985
11 139.999985 0.000060 0.000119 -18.486626 -42.714863 40.545486 139.999985
[Rope4_Seg03]
10 139.999924 0.000000 -0.000238 4.036139 -21.460768 11.276320 139.999924
11 139.999924 0.000000 -0.000238 6.091076 -25.929371 13.064039 139.999924
[Rope4_Seg04]
10 139.999985 0.000000 0.000119 4.767214 -8.140198 8.573912 139.999985
11 139.999985 0.000000 0.000119 6.430671 -8.168020 9.730923 139.999985
[Rope4_Seg05]
10 139.999802 -0.000060 -0.000119 9.286656 -10.305257 21.579599 139.999802
11 139.999802 -0.000060 -0.000119 11.754448 -10.120837 23.771627 139.999802
[Rope4_Seg06]
10 139.999924 0.000000 0.000060 8.376201 -6.804654 30.623758 139.999924
11 139.999924 0.000000 0.000060 9.306667 -4.547070 31.179684 139.999924
[Rope4_Seg07]
10 139.999802 0.000000 0.000000 2.223060 -1.027291 12.462465 139.999802
11 139.999802 0.000000 0.000000 2.040275 -0.001114 11.844779 139.999802
[Rope4_Seg08]
10 139.999924 0.000000 0.000119 -0.790377 -0.279158 5.951130 139.999924
11 139.999924 0.000000 0.000119 -0.899605 0.195805 5.799129 139.999924
[Rope4_Seg09]
10 90.185791 0.000060 0.000060 -135.617828 2.228885 0.850567 90.185791
11 90.185791 0.000060 0.000060 -135.617828 2.228885 0.850567 90.185791
[L_rear_hand01]
10 101.696655 -8.392275 -7.654577 -38.746338 0.246096 177.290207 102.329041
11 101.696655 -8.392275 -7.654577 -38.746349 0.246096 177.290207 102.329041
[L_rear_hand02]
10 102.726799 -1.568258 5.773216 84.315155 -1.142796 176.247437 102.900848
11 102.726799 -1.568258 5.773216 84.315163 -1.142796 176.247437 102.900848
[L_rear_hand03]
10 104.552910 9.721220 -10.420293 -155.747955 -4.630844 179.564758 105.519653
11 104.552910 9.721220 -10.420293 -155.747955 -4.630845 179.564758 105.519653
